<?xml version="1.0" encoding="UTF-8" standalone="no"?>
<!-- Created with Inkscape (http://www.inkscape.org/) -->

<svg
   version="1.1"
   id="svg2"
   width="477.33334"
   height="485.33334"
   viewBox="0 0 477.33334 485.33334"
   sodipodi:docname="Health&amp;Wellbeing_Logo Nov16.ai"
   xmlns:inkscape="http://www.inkscape.org/namespaces/inkscape"
   xmlns:sodipodi="http://sodipodi.sourceforge.net/DTD/sodipodi-0.dtd"
   xmlns="http://www.w3.org/2000/svg"
   xmlns:svg="http://www.w3.org/2000/svg">
  <defs
     id="defs6">
    <clipPath
       clipPathUnits="userSpaceOnUse"
       id="clipPath16">
      <path
         d="M 0,364 H 358 V 0 H 0 Z"
         id="path14" />
    </clipPath>
  </defs>
  <sodipodi:namedview
     id="namedview4"
     pagecolor="#ffffff"
     bordercolor="#000000"
     borderopacity="0.25"
     inkscape:showpageshadow="2"
     inkscape:pageopacity="0.0"
     inkscape:pagecheckerboard="0"
     inkscape:deskcolor="#d1d1d1" />
  <g
     id="g8"
     inkscape:groupmode="layer"
     inkscape:label="Health&amp;Wellbeing_Logo Nov16"
     transform="matrix(1.3333333,0,0,-1.3333333,0,485.33333)">
    <g
       id="g10">
      <g
         id="g12"
         clip-path="url(#clipPath16)">
        <g
           id="g18"
           transform="translate(35.34,63.7274)">
          <path
             d="M 0,0 V 11.178 H 11.32 V 0 h 3.741 V 23.021 H 11.32 V 14.527 H 0 v 8.494 H -3.75 V 0 Z m 35.059,7.598 c 0,2.468 -0.676,4.394 -2.012,5.765 -1.344,1.372 -3.215,2.06 -5.621,2.06 -2.287,0 -4.174,-0.751 -5.628,-2.256 -1.462,-1.502 -2.193,-3.423 -2.193,-5.762 0,-2.429 0.707,-4.375 2.114,-5.829 1.423,-1.458 3.326,-2.185 5.707,-2.185 1.667,0 3.121,0.366 4.355,1.096 1.242,0.735 2.28,1.852 3.121,3.349 L 32.025,5.444 C 31.475,4.414 30.838,3.667 30.099,3.207 29.368,2.747 28.448,2.515 27.356,2.515 c -1.242,0 -2.233,0.394 -2.98,1.172 -0.738,0.782 -1.155,1.867 -1.234,3.266 H 35.059 Z M 23.362,9.245 c 0.268,1.1 0.747,1.925 1.431,2.468 0.676,0.546 1.58,0.817 2.704,0.817 1.18,0 2.115,-0.279 2.791,-0.841 0.684,-0.558 1.092,-1.371 1.234,-2.444 z m 29.911,5.659 h -3.412 v -2.433 c -0.392,0.952 -1.029,1.683 -1.886,2.194 -0.865,0.506 -1.91,0.758 -3.129,0.758 -1.989,0 -3.6,-0.731 -4.842,-2.193 -1.234,-1.458 -1.855,-3.38 -1.855,-5.762 0,-2.504 0.613,-4.477 1.815,-5.916 1.211,-1.442 2.87,-2.161 4.984,-2.161 1.046,0 1.974,0.208 2.783,0.625 0.818,0.42 1.525,1.061 2.13,1.918 V 0 h 3.412 z M 48.808,3.82 C 48.03,2.889 47.032,2.425 45.813,2.425 c -1.305,0 -2.311,0.425 -3.018,1.285 -0.716,0.861 -1.07,2.084 -1.07,3.663 0,1.577 0.37,2.803 1.101,3.687 0.747,0.888 1.761,1.329 3.042,1.329 1.29,0 2.296,-0.429 3.011,-1.285 0.723,-0.865 1.085,-2.064 1.085,-3.605 0,-1.517 -0.393,-2.743 -1.156,-3.679 M 62.211,24.373 H 58.792 V 0 h 3.419 z M 71.935,0 v 11.917 h 2.61 v 2.987 h -2.61 v 5.645 h -3.412 v -5.645 h -2.61 v -2.987 h 2.61 V 0 Z m 9.606,0 v 6.796 c 0,1.222 0.047,2.114 0.149,2.68 0.102,0.559 0.275,1.018 0.527,1.372 0.354,0.534 0.849,0.951 1.47,1.242 0.629,0.295 1.336,0.44 2.13,0.44 1.219,0 2.068,-0.322 2.539,-0.967 0.48,-0.644 0.716,-1.945 0.716,-3.907 V 0 h 3.443 v 9.04 c 0,1.364 -0.055,2.319 -0.173,2.861 -0.11,0.547 -0.299,1.022 -0.566,1.435 -0.44,0.688 -1.046,1.211 -1.832,1.561 -0.778,0.349 -1.721,0.526 -2.838,0.526 -1.32,0 -2.436,-0.236 -3.364,-0.708 -0.92,-0.471 -1.721,-1.218 -2.406,-2.244 V 24.373 H 78.129 V 0 Z m 31.994,16.068 c -0.252,0.275 -0.44,0.558 -0.558,0.864 -0.118,0.307 -0.181,0.621 -0.181,0.944 0,0.66 0.22,1.202 0.644,1.623 0.433,0.416 0.999,0.625 1.698,0.625 0.637,0 1.156,-0.205 1.557,-0.617 0.401,-0.417 0.597,-0.948 0.597,-1.6 0,-0.562 -0.149,-1.073 -0.44,-1.533 -0.291,-0.456 -0.731,-0.856 -1.321,-1.199 l -0.849,-0.491 z m 2.822,-13.049 c -0.802,-0.358 -1.596,-0.535 -2.382,-0.535 -1.061,0 -1.942,0.35 -2.657,1.053 -0.715,0.704 -1.069,1.565 -1.069,2.583 0,0.719 0.212,1.379 0.652,1.973 0.44,0.589 1.203,1.242 2.304,1.953 l 0.581,0.397 5.031,-5.805 c -0.841,-0.719 -1.658,-1.262 -2.46,-1.619 M 127.118,0 123.251,4.386 c 0.597,0.527 1.148,1.089 1.666,1.694 0.511,0.598 0.975,1.239 1.399,1.907 l -2.201,2.342 c -0.55,-0.766 -1.061,-1.442 -1.54,-2.024 -0.488,-0.59 -0.951,-1.116 -1.415,-1.576 l -4.795,5.57 c 1.564,0.907 2.696,1.831 3.411,2.754 0.716,0.932 1.069,1.954 1.069,3.074 0,1.49 -0.511,2.669 -1.525,3.549 -1.014,0.873 -2.389,1.309 -4.119,1.309 -1.737,0 -3.16,-0.487 -4.268,-1.45 -1.101,-0.971 -1.659,-2.209 -1.659,-3.718 0,-0.688 0.134,-1.356 0.409,-2.012 0.267,-0.661 0.668,-1.27 1.179,-1.824 l 0.927,-1.007 c -1.784,-1.112 -3.081,-2.224 -3.898,-3.329 -0.818,-1.104 -1.227,-2.311 -1.227,-3.624 0,-1.925 0.661,-3.506 1.989,-4.732 1.328,-1.222 3.05,-1.839 5.165,-1.839 1.368,0 2.617,0.224 3.765,0.668 1.148,0.448 2.264,1.136 3.357,2.067 L 122.795,0 Z m 19.975,-0.896 5.164,13.065 c 0.189,0.495 0.37,1.01 0.551,1.548 0.181,0.539 0.353,1.12 0.534,1.737 0.15,-0.479 0.315,-0.99 0.504,-1.532 0.188,-0.539 0.4,-1.101 0.628,-1.69 l 5.251,-13.128 8.914,23.917 h -3.725 L 160.59,11.308 c -0.283,-0.778 -0.519,-1.451 -0.692,-2.012 -0.18,-0.57 -0.322,-1.089 -0.424,-1.561 -0.181,0.621 -0.37,1.234 -0.574,1.84 -0.205,0.609 -0.424,1.218 -0.653,1.823 l -4.873,12.531 -4.623,-12.291 c -0.023,-0.055 -0.062,-0.153 -0.109,-0.303 -0.401,-1.163 -0.786,-2.35 -1.148,-3.564 -0.15,0.503 -0.322,1.041 -0.511,1.615 -0.197,0.578 -0.432,1.25 -0.723,2.012 l -4.355,11.623 h -3.695 z m 37.048,8.494 c 0,2.468 -0.668,4.394 -2.012,5.765 -1.344,1.372 -3.215,2.06 -5.613,2.06 -2.295,0 -4.174,-0.751 -5.636,-2.256 -1.462,-1.502 -2.193,-3.423 -2.193,-5.762 0,-2.429 0.707,-4.375 2.122,-5.829 1.415,-1.458 3.317,-2.185 5.707,-2.185 1.667,0 3.121,0.366 4.355,1.096 1.235,0.735 2.272,1.852 3.113,3.349 l -2.877,1.608 c -0.543,-1.03 -1.187,-1.777 -1.918,-2.237 -0.731,-0.46 -1.651,-0.692 -2.752,-0.692 -1.234,0 -2.224,0.394 -2.971,1.172 -0.747,0.782 -1.155,1.867 -1.242,3.266 h 11.917 z m -11.697,1.647 c 0.275,1.1 0.747,1.925 1.431,2.468 0.684,0.546 1.588,0.817 2.704,0.817 1.187,0 2.115,-0.279 2.799,-0.841 0.683,-0.558 1.092,-1.371 1.226,-2.444 z m 19.464,15.128 h -3.412 V 0 h 3.412 z m 9.087,0 h -3.411 V 0 h 3.411 z M 210.9,11.104 c 0.723,0.856 1.729,1.285 3.018,1.285 1.29,0 2.304,-0.441 3.043,-1.329 0.738,-0.884 1.108,-2.11 1.108,-3.687 0,-1.579 -0.354,-2.802 -1.061,-3.663 -0.708,-0.86 -1.706,-1.285 -2.995,-1.285 -1.242,0 -2.248,0.464 -3.027,1.395 -0.778,0.936 -1.171,2.162 -1.171,3.679 0,1.541 0.362,2.74 1.085,3.605 m -4.387,13.269 V 0 h 3.412 v 1.934 c 0.606,-0.857 1.321,-1.498 2.131,-1.918 0.809,-0.417 1.737,-0.625 2.79,-0.625 2.107,0 3.765,0.719 4.976,2.161 1.21,1.439 1.816,3.412 1.816,5.916 0,2.382 -0.621,4.304 -1.848,5.762 -1.234,1.462 -2.837,2.193 -4.818,2.193 -1.219,0 -2.264,-0.255 -3.137,-0.766 -0.88,-0.515 -1.517,-1.246 -1.91,-2.186 V 24.373 Z M 240.252,7.598 c 0,2.468 -0.676,4.394 -2.012,5.765 -1.344,1.372 -3.215,2.06 -5.613,2.06 -2.295,0 -4.174,-0.751 -5.636,-2.256 -1.462,-1.502 -2.193,-3.423 -2.193,-5.762 0,-2.429 0.708,-4.375 2.122,-5.829 1.415,-1.458 3.317,-2.185 5.707,-2.185 1.667,0 3.113,0.366 4.355,1.096 1.235,0.735 2.272,1.852 3.113,3.349 l -2.877,1.608 c -0.542,-1.03 -1.187,-1.777 -1.918,-2.237 -0.739,-0.46 -1.651,-0.692 -2.751,-0.692 -1.235,0 -2.225,0.394 -2.972,1.172 -0.747,0.782 -1.163,1.867 -1.242,3.266 h 11.917 z m -11.696,1.647 c 0.274,1.1 0.746,1.925 1.43,2.468 0.684,0.546 1.58,0.817 2.704,0.817 1.179,0 2.115,-0.279 2.799,-0.841 0.683,-0.558 1.085,-1.371 1.226,-2.444 z m 16.232,10.592 c 0.417,-0.428 0.928,-0.637 1.517,-0.637 0.598,0 1.101,0.205 1.509,0.621 0.401,0.413 0.614,0.924 0.614,1.533 0,0.606 -0.205,1.109 -0.605,1.517 -0.401,0.401 -0.912,0.602 -1.518,0.602 -0.589,0 -1.1,-0.209 -1.517,-0.625 -0.432,-0.421 -0.636,-0.92 -0.636,-1.494 0,-0.589 0.204,-1.096 0.636,-1.517 m 3.231,-4.933 h -3.412 V 0 h 3.412 z M 256.941,0 v 6.796 c 0,1.222 0.055,2.114 0.149,2.68 0.103,0.559 0.283,1.018 0.527,1.372 0.362,0.534 0.849,0.951 1.47,1.242 0.629,0.295 1.336,0.44 2.138,0.44 1.211,0 2.06,-0.322 2.539,-0.967 0.472,-0.644 0.708,-1.945 0.708,-3.907 V 0 h 3.451 v 9.04 c 0,1.364 -0.063,2.319 -0.173,2.861 -0.118,0.547 -0.307,1.022 -0.574,1.435 -0.433,0.688 -1.046,1.211 -1.824,1.561 -0.786,0.349 -1.729,0.526 -2.837,0.526 -1.321,0 -2.445,-0.236 -3.365,-0.708 -0.927,-0.471 -1.73,-1.218 -2.413,-2.244 v 2.433 h -3.2 V 0 Z m 25.721,3.82 c -0.778,-0.931 -1.777,-1.395 -2.995,-1.395 -1.305,0 -2.311,0.425 -3.019,1.285 -0.715,0.861 -1.069,2.084 -1.069,3.663 0,1.577 0.37,2.803 1.101,3.687 0.746,0.888 1.761,1.329 3.042,1.329 1.297,0 2.295,-0.429 3.011,-1.285 0.723,-0.865 1.084,-2.064 1.084,-3.605 0,-1.517 -0.393,-2.743 -1.155,-3.679 m 4.465,11.084 h -3.412 v -2.433 c -0.393,0.952 -1.022,1.683 -1.886,2.194 -0.865,0.506 -1.91,0.758 -3.129,0.758 -1.989,0 -3.6,-0.731 -4.842,-2.193 -1.234,-1.458 -1.855,-3.38 -1.855,-5.762 0,-2.504 0.613,-4.477 1.816,-5.916 1.21,-1.442 2.869,-2.161 4.983,-2.161 1.046,0 1.973,0.208 2.783,0.625 0.818,0.42 1.525,1.061 2.13,1.918 l -0.023,-1.981 c -0.016,-1.498 -0.338,-2.567 -0.983,-3.207 -0.637,-0.637 -1.682,-0.96 -3.144,-0.96 -0.983,0 -1.745,0.17 -2.288,0.504 -0.55,0.334 -0.849,0.825 -0.904,1.462 l -3.663,-0.016 c 0.023,-1.434 0.645,-2.586 1.879,-3.451 1.226,-0.865 2.861,-1.293 4.921,-1.293 2.751,0 4.708,0.593 5.88,1.781 1.163,1.191 1.737,3.246 1.737,6.155 z"
             style="fill:#006b8c;fill-opacity:1;fill-rule:nonzero;stroke:none"
             id="path20" />
        </g>
        <g
           id="g22"
           transform="translate(114.7664,31.4058)">
          <path
             d="m 0,0 h -1.372 v 20.248 h -5.565 v 1.285 H 5.569 V 20.248 H 0 Z"
             style="fill:#006b8c;fill-opacity:1;fill-rule:nonzero;stroke:none"
             id="path24" />
        </g>
        <g
           id="g26"
           transform="translate(138.2587,43.8004)">
          <path
             d="M 0,0 V 9.138 H 1.372 V -12.395 H 0 v 11.11 h -13.081 v -11.11 h -1.367 V 9.138 h 1.367 V 0 Z"
             style="fill:#006b8c;fill-opacity:1;fill-rule:nonzero;stroke:none"
             id="path28" />
        </g>
        <g
           id="g30"
           transform="translate(146.4137,51.6456)">
          <path
             d="M 0,0 V -7.826 H 8.682 V -9.111 H 0 v -9.851 h 8.91 v -1.286 H -1.368 V 1.285 H 8.91 V 0 Z"
             style="fill:#006b8c;fill-opacity:1;fill-rule:nonzero;stroke:none"
             id="path32" />
        </g>
        <g
           id="g34"
           transform="translate(163.8066,42.8866)">
          <path
             d="m 0,0 c 1.344,0 2.684,0.057 3.773,0.998 1.026,0.83 1.513,2.113 1.513,3.398 0,1.6 -0.742,3.2 -2.287,3.885 -1.14,0.543 -2.598,0.486 -3.856,0.486 H -1.741 V 0 Z M 7.543,-11.481 H 5.97 l -7.023,10.196 h -0.688 v -10.196 h -1.368 v 21.533 h 2.681 c 1.745,0 3.458,-0.029 4.913,-1.087 1.544,-1.084 2.169,-2.798 2.169,-4.626 0,-3.74 -2.598,-5.681 -6.167,-5.624 z"
             style="fill:#006b8c;fill-opacity:1;fill-rule:nonzero;stroke:none"
             id="path36" />
        </g>
        <g
           id="g38"
           transform="translate(183.0212,50.1678)">
          <path
             d="m 0,0 -4.225,-10.394 h 8.423 z m -4.74,-11.679 -2.885,-7.083 H -9.024 L 0,3.484 8.997,-18.762 H 7.598 l -2.885,7.083 z"
             style="fill:#006b8c;fill-opacity:1;fill-rule:nonzero;stroke:none"
             id="path40" />
        </g>
        <g
           id="g42"
           transform="translate(199.3089,42.9141)">
          <path
             d="m 0,0 c 1.399,0 2.657,0.171 3.769,1.171 0.944,0.857 1.4,1.971 1.4,3.227 0,1.342 -0.543,2.685 -1.628,3.485 C 2.457,8.71 1.085,8.739 -0.228,8.739 H -2.484 V 0 Z m -2.484,-11.508 h -1.368 v 21.533 h 3.797 c 1.686,0 3.313,-0.116 4.654,-1.258 C 5.911,7.653 6.54,6.025 6.54,4.341 6.54,2.798 5.943,1.085 4.74,0.086 3.427,-1.057 1.631,-1.285 -0.055,-1.285 h -2.429 z"
             style="fill:#006b8c;fill-opacity:1;fill-rule:nonzero;stroke:none"
             id="path44" />
        </g>
        <path
           d="m 211.732,31.406 h -1.368 v 21.533 h 1.368 z"
           style="fill:#006b8c;fill-opacity:1;fill-rule:nonzero;stroke:none"
           id="path46" />
        <g
           id="g48"
           transform="translate(218.8723,51.6611)">
          <path
             d="M 0,0 V -7.826 H 8.682 V -9.111 H 0 v -9.851 h 8.91 v -1.286 H -1.368 V 1.285 H 8.91 V 0 Z"
             style="fill:#006b8c;fill-opacity:1;fill-rule:nonzero;stroke:none"
             id="path50" />
        </g>
        <g
           id="g52"
           transform="translate(242.9306,49.405)">
          <path
             d="m 0,0 c -0.971,1.541 -2.343,2.541 -4.367,2.541 -2.315,0 -4.056,-1.857 -4.056,-4.113 0,-2.254 2.142,-3.198 3.883,-4.025 l 4.112,-2.142 c 1.627,-1.028 2.456,-2.343 2.456,-4.284 0,-3.569 -3.254,-6.256 -6.741,-6.256 -2.999,0 -5.337,1.858 -6.339,4.629 l 1.202,0.542 c 0.912,-2.286 2.598,-3.885 5.196,-3.885 2.826,0 5.31,2.228 5.31,5.084 0,2.427 -2.484,3.455 -4.339,4.368 l -3.883,2.058 c -1.427,0.884 -2.229,2.142 -2.229,3.854 0,3.199 2.284,5.455 5.511,5.455 2.173,0 4.229,-1.171 5.255,-3.026 z"
             style="fill:#006b8c;fill-opacity:1;fill-rule:nonzero;stroke:none"
             id="path54" />
        </g>
        <g
           id="g56"
           transform="translate(274.2456,161.1068)">
          <path
             d="M 0,0 C -6.239,6.06 -13.541,9.097 -21.904,9.097 -29.032,9.079 -35.373,6.766 -40.876,2.14 c -5.353,-4.453 -8.01,-10.157 -8.01,-17.108 0,-0.596 -0.042,-2.743 0.373,-4.115 0.644,-3.488 2.105,-6.667 4.436,-9.506 3.201,-3.908 7.292,-5.874 12.286,-5.874 4.982,0 9.082,1.511 12.283,4.539 l 0.029,0.111 c 1.124,1.082 2.043,2.487 2.595,4.282 1.71,5.56 -0.943,12.557 -5.865,14.071 -4.923,1.514 -9.746,-0.344 -12.134,-8.474 -0.429,-1.46 -0.527,-2.86 -0.361,-4.162 -0.256,0.1 -0.638,0.347 -1.074,0.685 -5.766,5.456 -4.825,10.684 -4.573,12.664 0.387,3.038 2.149,5.492 6.955,8.338 4.266,2.499 7.92,3.75 10.961,3.75 7.301,0 13.091,-2.313 17.355,-6.961 3,-3.096 4.973,-6.833 5.969,-11.175 H 0.34 c 0.482,-2.14 0.725,-4.53 0.725,-6.97 0,-6.79 -3.561,-12.754 -10.682,-17.919 -6.961,-4.985 -13.987,-7.478 -21.106,-7.478 -14.596,0 -27.174,6.329 -37.67,18.966 -3.567,4.282 -6.515,8.735 -8.807,13.373 -4.109,8.305 -6.161,17.219 -6.161,26.716 8.549,9.261 18.869,17.628 30.988,25.115 14.621,9.252 26.812,13.881 36.609,13.881 l 7.478,-0.796 c -0.712,2.326 -2.316,4.366 -4.806,6.165 -0.706,0.341 -3.112,1.579 -7.221,3.734 10.516,8.546 24.58,13.433 42.211,14.687 -4.803,6.939 -15.037,10.419 -30.723,10.419 2.508,4.446 6.596,9.794 12.293,16.024 5.88,6.419 9.803,11.491 11.769,15.237 3.379,6.224 5.069,13.436 5.069,21.638 0,8.205 -2.152,15.234 -6.409,21.102 -4.639,6.595 -10.974,9.89 -18.978,9.89 -9.621,0 -14.427,-4.103 -14.427,-12.284 0,-6.062 3.116,-9.091 9.346,-9.091 6.056,0 9.091,4.626 9.091,13.881 6.595,-0.343 9.88,-5.489 9.88,-15.488 0,-10.853 -4.886,-20.842 -14.674,-29.914 -9.094,-7.122 -22.823,-17.125 -26.187,-20.453 -3.614,-3.614 -6.456,-8.708 -8.037,-11.087 -6.044,9.983 -12.463,15.061 -19.226,15.244 0.709,-4.1 1.072,-8.299 1.072,-12.563 0,-19.42 -7.921,-39.546 -23.781,-60.385 -0.718,4.638 -1.065,6.96 -1.065,6.96 0,9.779 0.09,13.699 0.26,11.742 -0.346,5.338 -1.517,8.822 -3.471,10.422 l -5.347,-1.074 c -1.066,-3.378 -1.778,-7.472 -2.137,-12.281 0,-0.365 -0.09,-4.545 -0.278,-12.555 l -1.858,-2.951 c -14.783,21.38 -22.177,40.882 -22.177,58.531 0,4.075 0.443,8.54 1.326,13.346 -6.58,-1.072 -13.08,-6.144 -19.495,-15.235 -2.843,5.53 -8.546,11.674 -17.099,18.439 -10.323,8.364 -16.919,14.166 -19.767,17.362 -6.236,7.307 -9.751,17.717 -9.354,24.573 0.628,10.846 9.571,15.879 9.875,16.047 -0.382,-1.845 -0.302,-4.114 0.378,-6.86 0.606,-2.444 1.911,-4.293 3.603,-5.498 0.048,-0.034 0.097,-0.067 0.146,-0.1 2.12,-1.444 4.816,-1.903 7.5,-1.274 2.091,0.49 3.86,1.556 5.104,3.045 0.964,1.033 1.799,2.55 1.989,5.081 0.04,0.53 -0.01,1.175 -0.142,1.88 -0.047,0.337 -0.111,0.679 -0.193,1.026 -0.803,3.428 -3.284,6.495 -6.222,8.072 -2.095,1.223 -4.446,1.835 -7.067,1.835 -8.385,0 -14.971,-3.301 -19.777,-9.875 -4.456,-5.88 -6.679,-13.19 -6.679,-21.916 0,-15.841 9.258,-33.048 27.787,-51.564 l -2.675,-0.539 c -15.327,0 -24.666,-3.369 -28.051,-10.144 7.116,0 14.519,-1.167 22.171,-3.48 8.908,-2.846 15.311,-6.503 19.225,-10.961 -7.292,-3.196 -11.385,-6.323 -12.261,-9.336 2.117,0.526 4.443,0.802 6.935,0.802 17.988,0 39.888,-12.113 65.712,-36.34 l 0.805,-6.158 c 0,-7.297 -2.039,-14.788 -6.145,-22.455 -2.282,-4.224 -5.311,-8.753 -8.816,-13.067 -10.336,-12.825 -21,-19.235 -32.054,-19.235 -9.986,0 -18.343,1.96 -25.119,5.871 -8.186,4.818 -12.286,11.859 -12.286,21.111 0,1.743 0.13,3.609 0.49,5.198 0.979,4.213 3.279,7.898 6.722,11.086 4.808,4.648 10.428,6.961 16.835,6.961 4.465,0 8.639,-1.341 12.54,-4.01 3.923,-2.666 6.278,-7.106 5.89,-10.423 -0.572,-4.882 -4.12,-7.91 -5.546,-8.945 0.169,4.022 -1.488,8.038 -4.666,9.615 -2.567,1.274 -5.276,1.487 -7.796,0.067 -1.247,-0.638 -2.454,-1.767 -3.63,-3.409 -0.237,-0.327 -0.467,-0.674 -0.685,-1.037 h -0.015 c -1.319,-2.072 -1.978,-3.961 -1.978,-5.642 0,-0.085 0.011,-0.167 0.013,-0.253 -0.071,-2.208 0.679,-4.252 2.031,-5.89 0.552,-0.744 1.202,-1.456 1.978,-2.124 2.848,-2.329 5.874,-3.49 9.069,-3.49 5.335,0 9.807,1.787 13.364,5.357 3.355,3.206 5.221,7.194 5.553,11.999 h 0.002 c 0.034,0.532 0.059,1.062 0.059,1.613 0,7.66 -3.115,13.72 -9.348,18.173 -5.524,4.09 -12.203,6.155 -20.043,6.155 -7.475,0 -14.169,-3.474 -20.046,-10.435 -4.304,-4.97 -7.038,-10.128 -8.187,-15.485 0,0 -0.628,-3.987 -0.628,-5.886 0,-10.147 4.461,-18.606 13.357,-25.388 8.029,-6.059 17.294,-9.081 27.794,-9.081 12.283,0 23.866,4.453 34.732,13.361 8.825,7.381 15.656,16.476 20.426,27.006 0,0 1.032,2.289 1.481,3.459 0.433,-1.17 0.882,-2.331 1.353,-3.471 h 0.006 c 4.496,-10.606 11.179,-19.699 20.028,-27.264 10.496,-9.081 21.885,-13.611 34.184,-13.611 11.054,0 20.758,3.192 29.122,9.601 9.091,7.138 13.63,16.037 13.63,26.729 0,1.558 -0.322,4.567 -0.322,4.567 C 8.082,-10.367 5.063,-4.768 0,0"
             style="fill:#d2e4ed;fill-opacity:1;fill-rule:nonzero;stroke:none"
             id="path58" />
        </g>
        <g
           id="g60"
           transform="translate(94.2232,200.8855)">
          <path
             d="m 0,0 c 0,-4.096 -3.32,-7.416 -7.416,-7.416 -4.096,0 -7.416,3.32 -7.416,7.416 0,4.096 3.32,7.416 7.416,7.416 C -3.32,7.416 0,4.096 0,0"
             style="fill:#d2e4ed;fill-opacity:1;fill-rule:nonzero;stroke:none"
             id="path62" />
        </g>
        <g
           id="g64"
           transform="translate(292.9912,201.2485)">
          <path
             d="m 0,0 c 0,-4.096 -3.32,-7.416 -7.416,-7.416 -4.096,0 -7.416,3.32 -7.416,7.416 0,4.096 3.32,7.416 7.416,7.416 C -3.32,7.416 0,4.096 0,0"
             style="fill:#d2e4ed;fill-opacity:1;fill-rule:nonzero;stroke:none"
             id="path66" />
        </g>
        <g
           id="g68"
           transform="translate(309.3354,151.0794)">
          <path
             d="m 0,0 c 0,-4.565 -3.701,-8.266 -8.266,-8.266 -4.565,0 -8.266,3.701 -8.266,8.266 0,4.565 3.701,8.266 8.266,8.266 C -3.701,8.266 0,4.565 0,0"
             style="fill:#d2e4ed;fill-opacity:1;fill-rule:nonzero;stroke:none"
             id="path70" />
        </g>
        <g
           id="g72"
           transform="translate(79.0053,150.9383)">
          <path
             d="m 0,0 c 0,-4.565 -3.701,-8.266 -8.266,-8.266 -4.565,0 -8.266,3.701 -8.266,8.266 0,4.565 3.701,8.266 8.266,8.266 C -3.701,8.266 0,4.565 0,0"
             style="fill:#d2e4ed;fill-opacity:1;fill-rule:nonzero;stroke:none"
             id="path74" />
        </g>
        <g
           id="g76"
           transform="translate(190.7826,289.3945)">
          <path
             d="m 0,0 c -2.675,-3.911 -3.584,-4.796 -5.363,-8.931 -0.011,0.025 -0.022,0.055 -0.032,0.08 -0.011,-0.025 -0.022,-0.055 -0.033,-0.08 -1.779,4.135 -2.688,5.02 -5.363,8.931 -2.663,3.923 -3.989,5.723 -3.989,7.661 0,1.437 1.239,4.811 3.735,7.84 2.483,3.208 4.354,4.814 5.601,4.814 0.016,0 0.033,-0.007 0.049,-0.008 0.015,0.001 0.032,0.008 0.048,0.008 1.247,0 3.118,-1.606 5.601,-4.814 C 2.75,12.472 3.989,9.098 3.989,7.661 3.989,5.723 2.663,3.923 0,0 M 46.488,18.398 C 42.225,21.773 37.41,23.482 32.062,23.482 25.656,23.482 17.739,19.574 9.02,13.873 6.416,17.168 -1.928,27.85 -5.435,30.72 -9.846,27.903 -17.796,17.057 -20.301,13.84 c -1.595,1.26 -10.697,9.333 -18.499,9.506 -13.558,0.301 -25.318,-7.341 -25.318,-19.105 0,0 -0.089,-1.941 1.617,-2.7 3.568,3.567 7.183,4.456 11.282,4.456 12.838,0 20.848,-7.558 23.697,-20.73 1.077,-12.126 2.149,-24.23 3.22,-36.327 1.598,-13.191 7.286,-19.78 17.089,-19.78 10.686,0 17.102,6.679 19.238,20.04 1.425,12.292 2.768,24.579 4.016,36.872 3.019,13.351 10.773,20.03 23.236,20.03 3.923,0 8.01,-1.69 12.295,-5.075 3.094,4.648 1.352,12.723 -5.084,17.371"
             style="fill:#d2e4ed;fill-opacity:1;fill-rule:nonzero;stroke:none"
             id="path78" />
        </g>
        <g
           id="g80"
           transform="translate(324.1129,214.2873)">
          <path
             d="m 0,0 c -6.772,-12.2 -21.046,-20.362 -42.826,-24.48 -5.45,-8.41 -13.451,-15.909 -24.013,-22.501 -11.224,-6.927 -21.622,-10.386 -31.193,-10.386 -6.602,0 -11.472,2.88 -14.606,8.636 -0.662,1.152 -0.991,2.716 -0.991,4.691 0,2.957 0.496,6.001 1.487,9.128 -6.441,-7.239 -11.472,-12.255 -15.101,-15.051 -6.271,-4.933 -12.711,-7.404 -19.313,-7.404 -3.625,0 -6.719,1.483 -9.283,4.453 -2.554,2.966 -3.833,6.843 -3.833,11.624 0,4.945 1.901,10.964 5.691,18.055 l 19.557,36.358 c 1.815,3.294 3.88,4.945 6.193,4.945 0.985,0 2.675,-0.291 5.072,-0.87 2.393,-0.576 3.92,-0.864 4.583,-0.864 0.656,0 2.059,1.124 4.204,3.378 2.149,2.248 3.716,3.461 4.707,3.629 l -31.193,-58.977 c -2.143,-4.134 -3.221,-7.605 -3.221,-10.41 0,-4.298 1.239,-6.444 3.716,-6.444 5.444,0 11.884,4.127 19.309,12.38 5.444,6.27 10.067,12.871 13.866,19.807 l 18.811,34.906 c 1.319,2.31 3.136,3.465 5.446,3.465 0.824,0 2.391,-0.291 4.703,-0.87 2.313,-0.576 3.8,-0.864 4.456,-0.864 0.991,0 2.515,1.124 4.58,3.378 2.065,2.248 3.589,3.461 4.583,3.629 l -29.463,-55.757 c -3.136,-5.948 -4.703,-10.488 -4.703,-13.627 0,-5.289 2.307,-7.93 6.933,-7.93 10.722,0 21.863,11.138 33.416,33.419 -5.481,5.277 -8.224,11.711 -8.224,19.306 0,6.602 1.818,12.169 5.456,16.712 3.638,4.533 8.181,6.806 13.64,6.806 3.638,0 6.938,-2.026 9.917,-6.066 2.973,-4.041 4.465,-8.457 4.465,-13.244 0,-8.248 -2.557,-16.175 -7.679,-23.761 6.109,0.826 13.37,3.464 21.793,7.923 9.403,4.951 15.095,9.816 17.076,14.606 z m -48.022,11.875 c 0,3.465 -1.585,5.199 -4.744,5.199 -2.997,0 -5.496,-1.772 -7.493,-5.32 -2,-3.549 -2.997,-7.884 -2.997,-12.999 0,-7.261 1.997,-12.543 5.994,-15.844 2.329,2.966 4.45,7.509 6.367,13.615 1.913,6.106 2.873,11.224 2.873,15.349"
             style="fill:#006b8c;fill-opacity:1;fill-rule:nonzero;stroke:none"
             id="path82" />
        </g>
        <g
           id="g84"
           transform="translate(236.9957,273.2242)">
          <path
             d="m 0,0 c 0,-7.543 -6.632,-14.971 -19.885,-22.288 -10.054,-5.484 -21.421,-9.88 -34.104,-13.194 -9.828,-22.514 -17.656,-36.682 -23.48,-42.51 -10.171,-10.172 -18.111,-16.169 -23.824,-17.999 4.914,-2.973 8.686,-4.456 11.312,-4.456 5.945,0 13.314,4.189 22.114,12.571 v -2.059 c -7.657,-8.019 -15.027,-12.029 -22.114,-12.029 -3.543,0 -8.168,1.728 -13.885,5.177 -3.542,-2.084 -6.796,-3.124 -9.766,-3.124 -3.66,0 -5.486,1.548 -5.486,4.647 0,3.214 1.882,4.821 5.654,4.821 2.17,0 5.257,-1.145 9.258,-3.43 5.369,4.341 8.453,6.969 9.255,7.886 2.059,2.168 3.942,4.942 5.657,8.311 1.715,3.372 7.199,16.6 16.454,39.683 l -29.484,-5.833 c -1.257,-3.431 -3.198,-8.432 -5.827,-15.008 -2.626,-6.574 -6.8,-12.95 -12.512,-19.124 -13.714,-14.633 -30.169,-21.953 -49.367,-21.953 -4.573,0 -8.514,1.04 -11.828,3.124 -2.854,-6.744 -4.285,-14.064 -4.285,-21.951 0,-15.435 4.911,-27.898 14.742,-37.385 8.453,-8.116 18.111,-12.172 28.967,-12.172 16.002,0 26.455,7.208 31.372,21.625 l 1.716,0.517 c -4.917,-15.773 -15.943,-23.663 -33.082,-23.663 -13.37,0 -24.449,5.258 -33.249,15.77 -8.23,9.949 -12.343,21.721 -12.343,35.321 0,5.716 1.487,13.317 4.45,22.802 -5.484,3.316 -9.428,6.289 -11.825,8.917 -6.633,6.973 -9.943,15.947 -9.943,26.917 0,15.544 6.233,27.546 18.7,36.005 6.4,4.342 13.261,7.255 20.578,8.744 0,8.342 1.035,14.399 3.087,18.173 3.998,7.314 9.881,13.399 17.653,18.257 7.766,4.858 15.764,7.289 23.988,7.289 7.316,0 13.769,-1.604 19.368,-4.806 3.882,-2.171 8.338,-5.837 13.364,-10.983 5.827,-5.951 10.682,-10.298 14.568,-13.045 3.31,0.715 6.339,1.068 9.082,1.068 6.397,0 9.593,-1.489 9.593,-4.468 0,-3.093 -2.053,-4.638 -6.168,-4.638 -2.858,0 -6.97,1.706 -12.342,5.124 -3.085,-1.257 -7.37,-3.715 -12.857,-7.375 -3.654,-3.66 -7.772,-10.46 -12.342,-20.412 -0.57,-1.827 -1.487,-5.313 -2.741,-10.46 8.686,1.487 18.511,3.369 29.478,5.654 2.858,5.593 7.939,12.671 15.256,21.236 5.023,5.939 12.107,10.989 21.248,15.16 9.14,4.164 17.656,6.251 25.539,6.251 C -3.431,6.685 0,4.456 0,0 m -129.919,-48.279 c 0,5.487 -1.028,10.342 -3.09,14.572 -5.484,-1.344 -9.769,-2.016 -12.856,-2.016 -11.547,0 -18.29,6.27 -20.232,18.811 -11.32,-3.199 -20.235,-8.169 -26.75,-14.913 -7.317,-7.654 -10.977,-17.083 -10.977,-28.282 0,-12.912 4.862,-22.966 14.584,-30.168 1.375,-0.799 3.431,-2.115 6.178,-3.942 0.802,2.056 2.059,4.74 3.774,8.057 2.171,4.112 3.716,6.456 4.632,7.029 -4.328,2.969 -6.489,7.428 -6.489,13.37 0,12.912 6.793,21.712 20.374,26.4 l 0.341,-1.035 c -12.68,-4.91 -19.019,-13.37 -19.019,-25.365 0,-1.83 0.57,-4.171 1.716,-7.029 1.368,-3.431 2.855,-5.14 4.455,-5.14 7.2,9.939 16.108,17.482 26.738,22.625 3.539,1.713 9.082,4.054 16.621,7.026 m 8.744,0.517 c -0.801,0 -3.028,-0.517 -6.688,-1.545 -6.397,-22.31 -18.795,-33.463 -37.194,-33.463 -2.743,0 -5.428,0.867 -8.056,2.611 -1.945,-2.18 -3.66,-4.874 -5.144,-8.088 l -3.083,-6.707 c 3.539,-2.295 7.31,-3.44 11.31,-3.44 10.287,0 19.427,3.833 27.428,11.5 6.168,5.948 11.253,13.615 15.253,22.997 1.372,3.66 3.431,9.038 6.174,16.135 m -8.744,-2.4 c -2.743,-1.034 -8.056,-3.266 -15.94,-6.7 -5.827,-2.635 -11.828,-6.93 -17.999,-12.884 -4.001,-3.893 -6.627,-6.983 -7.887,-9.274 2.632,-1.489 4.973,-2.236 7.029,-2.236 17.259,0 28.855,10.367 34.797,31.094 m 52.794,48.886 c -15.652,14.293 -32.048,21.44 -49.19,21.44 -6.511,0 -13.137,-1.66 -19.878,-4.973 -7.196,-3.548 -12.398,-8.007 -15.597,-13.386 -1.715,-2.858 -2.573,-8.58 -2.573,-17.157 7.085,0 12.742,-0.86 16.968,-2.576 5.029,-2.056 10.054,-6.459 15.08,-13.209 6.74,3.198 12.453,6.796 17.135,10.8 l 0.688,-1.201 c -5.716,-4.571 -11.315,-8.286 -16.795,-11.141 2.282,-3.889 3.424,-8.741 3.424,-14.569 l 7.202,1.545 c 5.599,12.349 12.572,22.356 20.914,30.017 4.341,4 7.14,6.347 8.397,7.032 5.14,2.858 9.884,5.316 14.225,7.378 m -56.906,-30.874 c -4.226,6.62 -8.8,10.816 -13.711,12.587 -4.91,1.765 -10.45,2.651 -16.621,2.651 1.944,-11.528 8.057,-17.291 18.337,-17.291 1.712,0 5.71,0.682 11.995,2.053 m 27.599,-63.389 c -3.317,2.025 -6.004,3.037 -8.06,3.037 -1.827,0 -2.741,-1.012 -2.741,-3.037 0,-1.901 1.028,-2.855 3.087,-2.855 1.369,0 2.998,0.39 4.88,1.158 1.889,0.774 2.834,1.344 2.834,1.697 m 49.366,91.656 c 0,1.939 -1.605,2.914 -4.803,2.914 -2.4,0 -5.428,-0.514 -9.082,-1.545 4.793,-2.737 8.453,-4.112 10.968,-4.112 1.941,0 2.917,0.913 2.917,2.743 M -1.52,0.031 c 0,3.425 -2.917,5.134 -8.745,5.134 -8.115,0 -17.088,-4.911 -26.916,-14.727 -8.574,-8.561 -14.005,-16.383 -16.287,-23.458 12.911,2.966 24.458,7.475 34.63,13.528 11.543,6.847 17.318,13.355 17.318,19.523"
             style="fill:#006b8c;fill-opacity:1;fill-rule:nonzero;stroke:none"
             id="path86" />
        </g>
      </g>
    </g>
  </g>
</svg>
