<?xml version="1.0" encoding="UTF-8" standalone="no"?>
<!-- Created with Inkscape (http://www.inkscape.org/) -->

<svg
   version="1.1"
   id="svg2"
   width="784.88934"
   height="388.444"
   viewBox="0 0 784.88934 388.444"
   sodipodi:docname="Health&amp;Wellbeing_Logo Nov16 v2.ai"
   xmlns:inkscape="http://www.inkscape.org/namespaces/inkscape"
   xmlns:sodipodi="http://sodipodi.sourceforge.net/DTD/sodipodi-0.dtd"
   xmlns="http://www.w3.org/2000/svg"
   xmlns:svg="http://www.w3.org/2000/svg">
  <defs
     id="defs6">
    <clipPath
       clipPathUnits="userSpaceOnUse"
       id="clipPath16">
      <path
         d="M 0,291.333 H 588.667 V 0 H 0 Z"
         id="path14" />
    </clipPath>
  </defs>
  <sodipodi:namedview
     id="namedview4"
     pagecolor="#ffffff"
     bordercolor="#000000"
     borderopacity="0.25"
     inkscape:showpageshadow="2"
     inkscape:pageopacity="0.0"
     inkscape:pagecheckerboard="0"
     inkscape:deskcolor="#d1d1d1" />
  <g
     id="g8"
     inkscape:groupmode="layer"
     inkscape:label="Health&amp;Wellbeing_Logo Nov16 v2"
     transform="matrix(1.3333333,0,0,-1.3333333,0,388.444)">
    <g
       id="g10">
      <g
         id="g12"
         clip-path="url(#clipPath16)">
        <g
           id="g18"
           transform="translate(274.2456,88.4402)">
          <path
             d="M 0,0 C -6.239,6.06 -13.541,9.097 -21.904,9.097 -29.032,9.079 -35.373,6.766 -40.876,2.14 c -5.353,-4.453 -8.01,-10.157 -8.01,-17.108 0,-0.596 -0.042,-2.743 0.373,-4.115 0.644,-3.488 2.105,-6.667 4.436,-9.506 3.201,-3.908 7.292,-5.874 12.286,-5.874 4.982,0 9.082,1.511 12.283,4.539 l 0.029,0.111 c 1.124,1.082 2.043,2.487 2.595,4.282 1.71,5.56 -0.943,12.557 -5.865,14.071 -4.923,1.514 -9.746,-0.344 -12.134,-8.474 -0.429,-1.46 -0.527,-2.86 -0.361,-4.162 -0.256,0.1 -0.638,0.347 -1.074,0.685 -5.766,5.456 -4.825,10.684 -4.573,12.664 0.387,3.038 2.149,5.492 6.955,8.338 4.266,2.499 7.92,3.75 10.961,3.75 7.301,0 13.091,-2.313 17.355,-6.961 3,-3.096 4.973,-6.833 5.969,-11.175 H 0.34 c 0.482,-2.14 0.725,-4.53 0.725,-6.97 0,-6.79 -3.561,-12.754 -10.682,-17.919 -6.961,-4.985 -13.987,-7.478 -21.106,-7.478 -14.596,0 -27.174,6.329 -37.67,18.966 -3.567,4.282 -6.515,8.735 -8.807,13.373 -4.109,8.305 -6.161,17.219 -6.161,26.716 8.549,9.261 18.869,17.628 30.988,25.115 14.621,9.252 26.812,13.881 36.609,13.881 l 7.478,-0.796 c -0.712,2.326 -2.316,4.366 -4.806,6.165 -0.706,0.341 -3.112,1.579 -7.221,3.734 10.516,8.546 24.58,13.433 42.211,14.687 -4.803,6.939 -15.037,10.419 -30.723,10.419 2.508,4.446 6.596,9.794 12.293,16.024 5.88,6.419 9.803,11.491 11.769,15.237 3.379,6.224 5.069,13.436 5.069,21.638 0,8.205 -2.152,15.234 -6.409,21.102 -4.639,6.595 -10.974,9.89 -18.978,9.89 -9.621,0 -14.427,-4.103 -14.427,-12.284 0,-6.062 3.116,-9.091 9.346,-9.091 6.056,0 9.091,4.626 9.091,13.881 6.595,-0.343 9.88,-5.489 9.88,-15.488 0,-10.853 -4.886,-20.842 -14.674,-29.914 -9.094,-7.122 -22.823,-17.125 -26.187,-20.453 -3.614,-3.614 -6.456,-8.708 -8.037,-11.087 -6.044,9.983 -12.463,15.061 -19.226,15.244 0.709,-4.1 1.072,-8.299 1.072,-12.563 0,-19.42 -7.921,-39.546 -23.781,-60.385 -0.718,4.638 -1.065,6.96 -1.065,6.96 0,9.779 0.09,13.699 0.26,11.742 -0.346,5.338 -1.517,8.822 -3.471,10.422 l -5.347,-1.074 c -1.066,-3.378 -1.778,-7.472 -2.137,-12.281 0,-0.365 -0.09,-4.545 -0.278,-12.555 l -1.858,-2.951 c -14.783,21.38 -22.177,40.882 -22.177,58.531 0,4.075 0.443,8.54 1.326,13.346 -6.58,-1.072 -13.08,-6.144 -19.495,-15.235 -2.843,5.53 -8.546,11.674 -17.099,18.439 -10.323,8.364 -16.919,14.166 -19.767,17.362 -6.236,7.307 -9.751,17.717 -9.354,24.573 0.628,10.846 9.571,15.879 9.875,16.047 -0.382,-1.845 -0.302,-4.114 0.378,-6.86 0.606,-2.444 1.911,-4.293 3.603,-5.498 0.048,-0.034 0.097,-0.067 0.146,-0.1 2.12,-1.445 4.816,-1.903 7.5,-1.274 2.091,0.49 3.86,1.556 5.104,3.045 0.964,1.033 1.799,2.55 1.989,5.081 0.04,0.53 -0.01,1.175 -0.142,1.88 -0.047,0.337 -0.111,0.679 -0.193,1.026 -0.803,3.428 -3.284,6.495 -6.222,8.072 -2.095,1.223 -4.446,1.835 -7.067,1.835 -8.385,0 -14.971,-3.301 -19.777,-9.875 -4.456,-5.88 -6.679,-13.19 -6.679,-21.916 0,-15.841 9.258,-33.048 27.787,-51.564 l -2.675,-0.539 c -15.327,0 -24.666,-3.369 -28.051,-10.144 7.116,0 14.519,-1.167 22.171,-3.48 8.908,-2.846 15.311,-6.503 19.225,-10.961 -7.292,-3.196 -11.385,-6.323 -12.261,-9.336 2.117,0.526 4.443,0.802 6.935,0.802 17.988,0 39.888,-12.113 65.712,-36.34 l 0.805,-6.158 c 0,-7.297 -2.039,-14.788 -6.145,-22.455 -2.282,-4.224 -5.311,-8.753 -8.816,-13.067 -10.336,-12.825 -21,-19.235 -32.054,-19.235 -9.986,0 -18.343,1.96 -25.119,5.871 -8.186,4.818 -12.286,11.859 -12.286,21.111 0,1.743 0.13,3.609 0.49,5.198 0.979,4.213 3.279,7.898 6.722,11.086 4.808,4.648 10.428,6.961 16.835,6.961 4.465,0 8.639,-1.341 12.54,-4.01 3.923,-2.666 6.278,-7.106 5.89,-10.423 -0.572,-4.882 -4.12,-7.91 -5.546,-8.945 0.169,4.022 -1.488,8.038 -4.666,9.615 -2.567,1.274 -5.276,1.487 -7.796,0.067 -1.247,-0.638 -2.454,-1.767 -3.63,-3.409 -0.237,-0.327 -0.467,-0.674 -0.685,-1.037 h -0.015 c -1.319,-2.072 -1.978,-3.961 -1.978,-5.642 0,-0.085 0.011,-0.167 0.013,-0.253 -0.071,-2.208 0.679,-4.252 2.031,-5.89 0.552,-0.744 1.202,-1.456 1.978,-2.124 2.848,-2.329 5.874,-3.49 9.069,-3.49 5.335,0 9.807,1.787 13.364,5.357 3.355,3.206 5.221,7.194 5.553,11.999 h 0.002 c 0.034,0.532 0.059,1.062 0.059,1.613 0,7.66 -3.115,13.72 -9.348,18.172 -5.524,4.091 -12.203,6.156 -20.043,6.156 -7.475,0 -14.169,-3.474 -20.046,-10.435 -4.304,-4.97 -7.038,-10.128 -8.187,-15.485 0,0 -0.628,-3.987 -0.628,-5.886 0,-10.147 4.461,-18.606 13.357,-25.388 8.029,-6.059 17.294,-9.081 27.794,-9.081 12.283,0 23.866,4.453 34.732,13.361 8.825,7.381 15.656,16.476 20.426,27.006 0,0 1.032,2.289 1.481,3.459 0.433,-1.17 0.882,-2.331 1.353,-3.471 h 0.006 c 4.496,-10.606 11.179,-19.699 20.028,-27.264 10.496,-9.081 21.885,-13.611 34.184,-13.611 11.054,0 20.758,3.192 29.122,9.601 9.091,7.138 13.63,16.037 13.63,26.729 0,1.558 -0.322,4.567 -0.322,4.567 C 8.082,-10.367 5.063,-4.768 0,0"
             style="fill:#d2e4ed;fill-opacity:1;fill-rule:nonzero;stroke:none"
             id="path20" />
        </g>
        <g
           id="g22"
           transform="translate(94.2232,128.2188)">
          <path
             d="m 0,0 c 0,-4.096 -3.32,-7.416 -7.416,-7.416 -4.096,0 -7.416,3.32 -7.416,7.416 0,4.096 3.32,7.416 7.416,7.416 C -3.32,7.416 0,4.096 0,0"
             style="fill:#d2e4ed;fill-opacity:1;fill-rule:nonzero;stroke:none"
             id="path24" />
        </g>
        <g
           id="g26"
           transform="translate(292.9912,128.5818)">
          <path
             d="m 0,0 c 0,-4.096 -3.32,-7.416 -7.416,-7.416 -4.096,0 -7.416,3.32 -7.416,7.416 0,4.096 3.32,7.416 7.416,7.416 C -3.32,7.416 0,4.096 0,0"
             style="fill:#d2e4ed;fill-opacity:1;fill-rule:nonzero;stroke:none"
             id="path28" />
        </g>
        <g
           id="g30"
           transform="translate(309.3354,78.4128)">
          <path
             d="m 0,0 c 0,-4.565 -3.701,-8.266 -8.266,-8.266 -4.565,0 -8.266,3.701 -8.266,8.266 0,4.565 3.701,8.266 8.266,8.266 C -3.701,8.266 0,4.565 0,0"
             style="fill:#d2e4ed;fill-opacity:1;fill-rule:nonzero;stroke:none"
             id="path32" />
        </g>
        <g
           id="g34"
           transform="translate(79.0053,78.2717)">
          <path
             d="m 0,0 c 0,-4.565 -3.701,-8.266 -8.266,-8.266 -4.565,0 -8.266,3.701 -8.266,8.266 0,4.565 3.701,8.266 8.266,8.266 C -3.701,8.266 0,4.565 0,0"
             style="fill:#d2e4ed;fill-opacity:1;fill-rule:nonzero;stroke:none"
             id="path36" />
        </g>
        <g
           id="g38"
           transform="translate(190.7826,216.7279)">
          <path
             d="m 0,0 c -2.675,-3.911 -3.584,-4.796 -5.363,-8.931 -0.011,0.025 -0.022,0.055 -0.032,0.08 -0.011,-0.025 -0.022,-0.055 -0.033,-0.08 -1.779,4.135 -2.688,5.02 -5.363,8.931 -2.663,3.923 -3.989,5.723 -3.989,7.661 0,1.437 1.239,4.811 3.735,7.84 2.483,3.208 4.354,4.814 5.601,4.814 0.016,0 0.033,-0.007 0.049,-0.008 0.015,0.001 0.032,0.008 0.048,0.008 1.247,0 3.118,-1.606 5.601,-4.814 C 2.75,12.472 3.989,9.098 3.989,7.661 3.989,5.723 2.663,3.923 0,0 M 46.488,18.398 C 42.225,21.773 37.41,23.482 32.062,23.482 25.656,23.482 17.739,19.574 9.02,13.873 6.416,17.168 -1.928,27.85 -5.435,30.72 -9.846,27.903 -17.796,17.057 -20.301,13.84 c -1.595,1.26 -10.697,9.333 -18.499,9.506 -13.558,0.301 -25.318,-7.341 -25.318,-19.105 0,0 -0.089,-1.941 1.617,-2.7 3.568,3.567 7.183,4.456 11.282,4.456 12.838,0 20.848,-7.558 23.697,-20.73 1.077,-12.126 2.149,-24.23 3.22,-36.327 1.598,-13.191 7.286,-19.78 17.089,-19.78 10.686,0 17.102,6.679 19.238,20.04 1.425,12.292 2.768,24.579 4.016,36.872 3.019,13.351 10.773,20.03 23.236,20.03 3.923,0 8.01,-1.69 12.295,-5.075 3.094,4.648 1.352,12.723 -5.084,17.371"
             style="fill:#d2e4ed;fill-opacity:1;fill-rule:nonzero;stroke:none"
             id="path40" />
        </g>
        <g
           id="g42"
           transform="translate(324.1129,141.6206)">
          <path
             d="m 0,0 c -6.772,-12.2 -21.046,-20.362 -42.826,-24.48 -5.45,-8.41 -13.451,-15.909 -24.013,-22.501 -11.224,-6.927 -21.622,-10.386 -31.193,-10.386 -6.602,0 -11.472,2.88 -14.606,8.636 -0.662,1.152 -0.991,2.716 -0.991,4.691 0,2.957 0.496,6.001 1.487,9.128 -6.441,-7.239 -11.472,-12.255 -15.101,-15.051 -6.271,-4.933 -12.711,-7.404 -19.313,-7.404 -3.625,0 -6.719,1.483 -9.283,4.453 -2.554,2.966 -3.833,6.843 -3.833,11.624 0,4.945 1.901,10.964 5.691,18.055 l 19.557,36.358 c 1.815,3.294 3.88,4.945 6.193,4.945 0.985,0 2.675,-0.291 5.072,-0.87 2.393,-0.576 3.92,-0.864 4.583,-0.864 0.656,0 2.059,1.124 4.204,3.378 2.149,2.248 3.716,3.461 4.707,3.629 l -31.193,-58.977 c -2.143,-4.134 -3.221,-7.605 -3.221,-10.41 0,-4.298 1.239,-6.444 3.716,-6.444 5.444,0 11.884,4.127 19.309,12.38 5.444,6.27 10.067,12.871 13.866,19.807 l 18.811,34.906 c 1.319,2.31 3.136,3.465 5.446,3.465 0.824,0 2.391,-0.291 4.703,-0.87 2.313,-0.576 3.8,-0.864 4.456,-0.864 0.991,0 2.515,1.124 4.58,3.378 2.065,2.248 3.589,3.461 4.583,3.629 l -29.463,-55.757 c -3.136,-5.948 -4.703,-10.488 -4.703,-13.627 0,-5.289 2.307,-7.93 6.933,-7.93 10.722,0 21.863,11.138 33.416,33.419 -5.481,5.277 -8.224,11.711 -8.224,19.306 0,6.602 1.818,12.169 5.456,16.712 3.638,4.533 8.181,6.806 13.64,6.806 3.638,0 6.938,-2.026 9.917,-6.066 2.973,-4.041 4.465,-8.457 4.465,-13.244 0,-8.248 -2.557,-16.175 -7.679,-23.761 6.109,0.826 13.37,3.464 21.793,7.923 9.403,4.951 15.095,9.816 17.076,14.606 z m -48.022,11.875 c 0,3.465 -1.585,5.199 -4.744,5.199 -2.997,0 -5.496,-1.771 -7.493,-5.32 -2,-3.549 -2.997,-7.884 -2.997,-12.999 0,-7.261 1.997,-12.543 5.994,-15.844 2.329,2.966 4.45,7.509 6.367,13.615 1.913,6.106 2.873,11.224 2.873,15.349"
             style="fill:#006b8c;fill-opacity:1;fill-rule:nonzero;stroke:none"
             id="path44" />
        </g>
        <g
           id="g46"
           transform="translate(236.9957,200.5575)">
          <path
             d="m 0,0 c 0,-7.543 -6.632,-14.971 -19.885,-22.288 -10.054,-5.484 -21.421,-9.88 -34.104,-13.194 -9.828,-22.514 -17.656,-36.682 -23.48,-42.51 -10.171,-10.172 -18.111,-16.169 -23.824,-17.999 4.914,-2.973 8.686,-4.456 11.312,-4.456 5.945,0 13.314,4.189 22.114,12.571 v -2.059 c -7.657,-8.019 -15.027,-12.029 -22.114,-12.029 -3.543,0 -8.168,1.728 -13.885,5.177 -3.542,-2.084 -6.796,-3.124 -9.766,-3.124 -3.66,0 -5.486,1.548 -5.486,4.647 0,3.214 1.882,4.821 5.654,4.821 2.17,0 5.257,-1.145 9.258,-3.43 5.369,4.341 8.453,6.969 9.255,7.886 2.059,2.168 3.942,4.942 5.657,8.311 1.715,3.372 7.199,16.599 16.454,39.683 l -29.484,-5.833 c -1.257,-3.431 -3.198,-8.432 -5.827,-15.008 -2.626,-6.574 -6.8,-12.95 -12.512,-19.124 -13.714,-14.633 -30.169,-21.953 -49.367,-21.953 -4.573,0 -8.514,1.04 -11.828,3.124 -2.854,-6.744 -4.285,-14.064 -4.285,-21.951 0,-15.435 4.911,-27.898 14.742,-37.385 8.453,-8.116 18.111,-12.172 28.967,-12.172 16.002,0 26.455,7.208 31.372,21.625 l 1.716,0.517 c -4.917,-15.773 -15.943,-23.663 -33.082,-23.663 -13.37,0 -24.449,5.258 -33.249,15.77 -8.23,9.949 -12.343,21.721 -12.343,35.321 0,5.716 1.487,13.317 4.45,22.802 -5.484,3.316 -9.428,6.289 -11.825,8.917 -6.633,6.973 -9.943,15.947 -9.943,26.917 0,15.544 6.233,27.546 18.7,36.005 6.4,4.342 13.261,7.255 20.578,8.744 0,8.342 1.035,14.399 3.087,18.173 3.998,7.314 9.881,13.399 17.653,18.257 7.766,4.858 15.764,7.289 23.988,7.289 7.316,0 13.769,-1.604 19.368,-4.806 3.882,-2.171 8.338,-5.837 13.364,-10.983 5.827,-5.951 10.682,-10.299 14.568,-13.045 3.31,0.715 6.339,1.068 9.082,1.068 6.397,0 9.593,-1.489 9.593,-4.468 0,-3.093 -2.053,-4.638 -6.168,-4.638 -2.858,0 -6.97,1.706 -12.342,5.124 -3.085,-1.257 -7.37,-3.715 -12.857,-7.375 -3.654,-3.66 -7.772,-10.46 -12.342,-20.412 -0.57,-1.827 -1.487,-5.313 -2.741,-10.46 8.686,1.487 18.511,3.369 29.478,5.654 2.858,5.593 7.939,12.671 15.256,21.236 5.023,5.939 12.107,10.989 21.248,15.16 9.14,4.164 17.656,6.251 25.539,6.251 C -3.431,6.685 0,4.456 0,0 m -129.919,-48.279 c 0,5.487 -1.028,10.342 -3.09,14.572 -5.484,-1.344 -9.769,-2.016 -12.856,-2.016 -11.547,0 -18.29,6.27 -20.232,18.811 -11.32,-3.199 -20.235,-8.169 -26.75,-14.913 -7.317,-7.654 -10.977,-17.083 -10.977,-28.282 0,-12.912 4.862,-22.966 14.584,-30.168 1.375,-0.799 3.431,-2.115 6.178,-3.942 0.802,2.056 2.059,4.74 3.774,8.057 2.171,4.112 3.716,6.456 4.632,7.029 -4.328,2.969 -6.489,7.428 -6.489,13.37 0,12.912 6.793,21.712 20.374,26.4 l 0.341,-1.035 c -12.68,-4.91 -19.019,-13.37 -19.019,-25.365 0,-1.83 0.57,-4.171 1.716,-7.029 1.368,-3.431 2.855,-5.14 4.455,-5.14 7.2,9.939 16.108,17.482 26.738,22.625 3.539,1.713 9.082,4.054 16.621,7.026 m 8.744,0.517 c -0.801,0 -3.028,-0.517 -6.688,-1.545 -6.397,-22.31 -18.795,-33.463 -37.194,-33.463 -2.743,0 -5.428,0.867 -8.056,2.611 -1.945,-2.18 -3.66,-4.874 -5.144,-8.088 l -3.083,-6.707 c 3.539,-2.295 7.31,-3.44 11.31,-3.44 10.287,0 19.427,3.833 27.428,11.5 6.168,5.948 11.253,13.615 15.253,22.997 1.372,3.66 3.431,9.038 6.174,16.135 m -8.744,-2.4 c -2.743,-1.034 -8.056,-3.266 -15.94,-6.7 -5.827,-2.635 -11.828,-6.93 -17.999,-12.884 -4.001,-3.893 -6.627,-6.983 -7.887,-9.274 2.632,-1.489 4.973,-2.236 7.029,-2.236 17.259,0 28.855,10.367 34.797,31.094 m 52.794,48.886 c -15.652,14.293 -32.048,21.44 -49.19,21.44 -6.511,0 -13.137,-1.66 -19.878,-4.973 -7.196,-3.548 -12.398,-8.007 -15.597,-13.386 -1.715,-2.858 -2.573,-8.58 -2.573,-17.157 7.085,0 12.742,-0.86 16.968,-2.576 5.029,-2.056 10.054,-6.459 15.08,-13.209 6.74,3.198 12.453,6.796 17.135,10.8 l 0.688,-1.201 c -5.716,-4.571 -11.315,-8.286 -16.795,-11.141 2.282,-3.889 3.424,-8.741 3.424,-14.569 l 7.202,1.545 c 5.599,12.349 12.572,22.356 20.914,30.017 4.341,4 7.14,6.347 8.397,7.032 5.14,2.858 9.884,5.316 14.225,7.378 m -56.906,-30.874 c -4.226,6.62 -8.8,10.816 -13.711,12.587 -4.91,1.765 -10.45,2.651 -16.621,2.651 1.944,-11.528 8.057,-17.291 18.337,-17.291 1.712,0 5.71,0.682 11.995,2.053 m 27.599,-63.389 c -3.317,2.025 -6.004,3.037 -8.06,3.037 -1.827,0 -2.741,-1.012 -2.741,-3.037 0,-1.901 1.028,-2.855 3.087,-2.855 1.369,0 2.998,0.39 4.88,1.158 1.889,0.774 2.834,1.344 2.834,1.697 m 49.366,91.656 c 0,1.939 -1.605,2.914 -4.803,2.914 -2.4,0 -5.428,-0.514 -9.082,-1.545 4.793,-2.737 8.453,-4.112 10.968,-4.112 1.941,0 2.917,0.913 2.917,2.743 M -1.52,0.031 c 0,3.425 -2.917,5.134 -8.745,5.134 -8.115,0 -17.088,-4.911 -26.916,-14.727 -8.574,-8.561 -14.005,-16.383 -16.287,-23.458 12.911,2.966 24.458,7.475 34.63,13.528 11.543,6.847 17.318,13.355 17.318,19.523"
             style="fill:#006b8c;fill-opacity:1;fill-rule:nonzero;stroke:none"
             id="path48" />
        </g>
        <g
           id="g50"
           transform="translate(333.6846,135.3836)">
          <path
             d="M 0,0 V 8.84 H 8.952 V 0 h 2.959 V 18.206 H 8.952 V 11.489 H 0 v 6.717 H -2.966 V 0 Z m 27.727,6.009 c 0,1.952 -0.534,3.475 -1.591,4.56 -1.063,1.085 -2.543,1.629 -4.445,1.629 -1.809,0 -3.301,-0.594 -4.451,-1.785 -1.157,-1.187 -1.735,-2.707 -1.735,-4.557 0,-1.921 0.559,-3.459 1.672,-4.609 1.126,-1.154 2.63,-1.729 4.514,-1.729 1.318,0 2.468,0.289 3.444,0.867 0.982,0.582 1.803,1.465 2.468,2.649 L 25.328,4.305 C 24.893,3.491 24.389,2.9 23.805,2.537 23.226,2.173 22.499,1.989 21.635,1.989 c -0.983,0 -1.766,0.311 -2.356,0.927 -0.585,0.618 -0.914,1.476 -0.976,2.583 h 9.424 z m -9.25,1.302 c 0.211,0.87 0.59,1.523 1.131,1.952 0.535,0.432 1.25,0.647 2.139,0.647 0.932,0 1.672,-0.221 2.207,-0.665 0.541,-0.442 0.864,-1.085 0.976,-1.934 z m 23.655,4.476 H 39.434 V 9.863 c -0.311,0.753 -0.814,1.331 -1.492,1.735 -0.684,0.401 -1.511,0.6 -2.475,0.6 -1.572,0 -2.847,-0.578 -3.829,-1.735 C 30.662,9.31 30.171,7.79 30.171,5.906 c 0,-1.98 0.485,-3.54 1.436,-4.678 0.957,-1.141 2.269,-1.71 3.941,-1.71 0.827,0 1.561,0.165 2.201,0.494 0.647,0.333 1.206,0.84 1.685,1.517 V 0 h 2.698 z M 38.601,3.021 C 37.986,2.285 37.196,1.918 36.232,1.918 c -1.032,0 -1.827,0.336 -2.387,1.016 -0.566,0.681 -0.846,1.648 -0.846,2.897 0,1.247 0.293,2.217 0.871,2.916 0.59,0.703 1.392,1.051 2.406,1.051 1.02,0 1.815,-0.339 2.381,-1.017 0.572,-0.684 0.858,-1.631 0.858,-2.85 0,-1.2 -0.311,-2.17 -0.914,-2.91 m 10.6,16.255 H 46.497 V 0 h 2.704 z M 56.891,0 v 9.425 h 2.064 v 2.362 h -2.064 v 4.464 H 54.193 V 11.787 H 52.129 V 9.425 h 2.064 V 0 Z m 7.597,0 v 5.375 c 0,0.966 0.037,1.672 0.118,2.12 0.081,0.441 0.218,0.805 0.417,1.084 0.28,0.423 0.671,0.753 1.162,0.983 0.498,0.233 1.058,0.348 1.685,0.348 0.964,0 1.635,-0.255 2.008,-0.765 0.38,-0.51 0.566,-1.539 0.566,-3.09 V 0 h 2.723 v 7.15 c 0,1.078 -0.043,1.834 -0.137,2.262 -0.087,0.433 -0.236,0.809 -0.447,1.135 -0.348,0.544 -0.827,0.958 -1.449,1.234 -0.615,0.277 -1.361,0.417 -2.244,0.417 -1.045,0 -1.927,-0.187 -2.661,-0.56 -0.727,-0.373 -1.361,-0.964 -1.902,-1.775 v 9.413 H 61.79 V 0 Z m 25.303,12.707 c -0.199,0.218 -0.348,0.442 -0.441,0.684 -0.093,0.243 -0.143,0.491 -0.143,0.746 0,0.523 0.174,0.951 0.51,1.284 0.342,0.33 0.789,0.494 1.343,0.494 0.503,0 0.913,-0.161 1.231,-0.488 0.317,-0.329 0.472,-0.749 0.472,-1.265 0,-0.444 -0.118,-0.848 -0.348,-1.212 -0.23,-0.361 -0.578,-0.678 -1.045,-0.948 L 90.699,11.613 Z M 92.023,2.387 C 91.389,2.104 90.761,1.965 90.139,1.965 c -0.839,0 -1.535,0.276 -2.101,0.833 -0.566,0.556 -0.845,1.237 -0.845,2.042 0,0.569 0.168,1.091 0.515,1.56 0.349,0.467 0.952,0.983 1.822,1.545 l 0.46,0.314 3.979,-4.591 C 93.304,3.099 92.657,2.67 92.023,2.387 M 100.534,0 97.475,3.469 c 0.473,0.417 0.908,0.861 1.319,1.34 0.403,0.472 0.771,0.979 1.106,1.507 L 98.159,8.169 C 97.724,7.563 97.32,7.028 96.941,6.568 96.555,6.102 96.189,5.685 95.822,5.322 L 92.03,9.727 c 1.236,0.717 2.132,1.448 2.697,2.178 0.566,0.737 0.846,1.545 0.846,2.431 0,1.178 -0.404,2.111 -1.206,2.807 -0.802,0.69 -1.89,1.035 -3.258,1.035 -1.374,0 -2.499,-0.385 -3.375,-1.147 -0.871,-0.767 -1.312,-1.746 -1.312,-2.94 0,-0.544 0.106,-1.073 0.323,-1.592 0.211,-0.522 0.528,-1.004 0.933,-1.442 l 0.733,-0.796 C 87,9.381 85.974,8.502 85.328,7.628 84.681,6.755 84.358,5.801 84.358,4.762 c 0,-1.523 0.522,-2.773 1.573,-3.742 1.05,-0.967 2.412,-1.455 4.084,-1.455 1.082,0 2.07,0.177 2.978,0.528 0.908,0.355 1.791,0.899 2.655,1.635 L 97.115,0 Z m 15.797,-0.709 4.085,10.333 c 0.149,0.392 0.292,0.799 0.435,1.225 0.143,0.425 0.28,0.885 0.423,1.373 0.118,-0.379 0.249,-0.783 0.398,-1.212 0.149,-0.426 0.317,-0.87 0.497,-1.336 l 4.153,-10.383 7.05,18.915 h -2.947 l -3.419,-9.263 c -0.224,-0.615 -0.41,-1.147 -0.547,-1.591 -0.143,-0.451 -0.255,-0.861 -0.336,-1.234 -0.143,0.491 -0.292,0.975 -0.454,1.454 -0.161,0.482 -0.335,0.964 -0.516,1.442 l -3.854,9.91 -3.656,-9.72 c -0.018,-0.043 -0.049,-0.121 -0.087,-0.239 -0.317,-0.92 -0.621,-1.859 -0.908,-2.819 -0.118,0.397 -0.254,0.823 -0.404,1.277 -0.155,0.457 -0.341,0.989 -0.572,1.591 l -3.444,9.192 h -2.922 z m 29.301,6.718 c 0,1.952 -0.528,3.475 -1.592,4.56 -1.063,1.085 -2.542,1.629 -4.438,1.629 -1.816,0 -3.302,-0.594 -4.458,-1.785 -1.156,-1.187 -1.734,-2.707 -1.734,-4.557 0,-1.921 0.559,-3.459 1.678,-4.609 1.119,-1.154 2.623,-1.729 4.514,-1.729 1.317,0 2.468,0.289 3.444,0.867 0.976,0.582 1.797,1.465 2.461,2.649 l -2.275,1.271 C 142.803,3.491 142.294,2.9 141.715,2.537 141.137,2.173 140.41,1.989 139.539,1.989 c -0.976,0 -1.759,0.311 -2.35,0.927 -0.59,0.618 -0.913,1.476 -0.982,2.583 h 9.425 z m -9.251,1.302 c 0.218,0.87 0.591,1.523 1.132,1.952 0.541,0.432 1.256,0.647 2.138,0.647 0.939,0 1.673,-0.221 2.213,-0.665 0.541,-0.442 0.865,-1.085 0.97,-1.934 z m 15.393,11.965 h -2.698 V 0 h 2.698 z m 7.187,0 h -2.698 V 0 h 2.698 z m 7.833,-10.495 c 0.572,0.678 1.368,1.017 2.388,1.017 1.02,0 1.821,-0.348 2.406,-1.051 0.584,-0.699 0.876,-1.669 0.876,-2.916 0,-1.249 -0.279,-2.216 -0.839,-2.897 -0.56,-0.68 -1.349,-1.016 -2.369,-1.016 -0.982,0 -1.778,0.367 -2.393,1.103 -0.616,0.74 -0.927,1.71 -0.927,2.91 0,1.219 0.287,2.166 0.858,2.85 m -3.469,10.495 V 0 h 2.699 v 1.529 c 0.478,-0.677 1.044,-1.184 1.684,-1.517 0.641,-0.329 1.374,-0.494 2.207,-0.494 1.667,0 2.978,0.569 3.936,1.71 0.957,1.138 1.436,2.698 1.436,4.678 0,1.884 -0.491,3.404 -1.461,4.557 -0.976,1.157 -2.244,1.735 -3.811,1.735 -0.964,0 -1.791,-0.202 -2.481,-0.606 -0.696,-0.408 -1.2,-0.986 -1.51,-1.729 v 9.413 z M 190.009,6.009 c 0,1.952 -0.535,3.475 -1.592,4.56 -1.063,1.085 -2.543,1.629 -4.439,1.629 -1.815,0 -3.301,-0.594 -4.457,-1.785 -1.157,-1.187 -1.735,-2.707 -1.735,-4.557 0,-1.921 0.56,-3.459 1.679,-4.609 1.119,-1.154 2.623,-1.729 4.513,-1.729 1.318,0 2.462,0.289 3.444,0.867 0.977,0.582 1.797,1.465 2.462,2.649 l -2.275,1.271 C 187.18,3.491 186.67,2.9 186.092,2.537 c -0.584,-0.364 -1.306,-0.548 -2.176,-0.548 -0.976,0 -1.76,0.311 -2.35,0.927 -0.591,0.618 -0.92,1.476 -0.982,2.583 h 9.425 z m -9.251,1.302 c 0.217,0.87 0.59,1.523 1.131,1.952 0.541,0.432 1.25,0.647 2.139,0.647 0.933,0 1.672,-0.221 2.213,-0.665 0.541,-0.442 0.858,-1.085 0.97,-1.934 z m 12.838,8.377 c 0.329,-0.338 0.733,-0.503 1.2,-0.503 0.472,0 0.87,0.162 1.193,0.491 0.317,0.326 0.485,0.731 0.485,1.212 0,0.479 -0.161,0.877 -0.478,1.2 -0.317,0.317 -0.722,0.476 -1.2,0.476 -0.467,0 -0.871,-0.165 -1.2,-0.494 -0.342,-0.333 -0.504,-0.728 -0.504,-1.182 0,-0.466 0.162,-0.867 0.504,-1.2 m 2.555,-3.901 h -2.698 V 0 h 2.698 z M 203.207,0 v 5.375 c 0,0.966 0.044,1.672 0.118,2.12 0.081,0.441 0.224,0.805 0.417,1.084 0.286,0.423 0.671,0.753 1.162,0.983 0.498,0.233 1.057,0.348 1.692,0.348 0.957,0 1.628,-0.255 2.007,-0.765 0.374,-0.51 0.56,-1.539 0.56,-3.09 V 0 h 2.729 v 7.15 c 0,1.078 -0.049,1.834 -0.137,2.262 -0.093,0.433 -0.242,0.809 -0.453,1.135 -0.342,0.544 -0.827,0.958 -1.443,1.234 -0.621,0.277 -1.367,0.417 -2.244,0.417 -1.045,0 -1.934,-0.187 -2.661,-0.56 -0.733,-0.373 -1.368,-0.964 -1.909,-1.775 v 1.924 h -2.53 V 0 Z m 20.342,3.021 c -0.615,-0.736 -1.405,-1.103 -2.369,-1.103 -1.032,0 -1.827,0.336 -2.387,1.016 -0.566,0.681 -0.845,1.648 -0.845,2.897 0,1.247 0.292,2.217 0.87,2.916 0.59,0.703 1.393,1.051 2.406,1.051 1.026,0 1.815,-0.339 2.381,-1.017 0.572,-0.684 0.858,-1.631 0.858,-2.85 0,-1.2 -0.311,-2.17 -0.914,-2.91 m 3.531,8.766 h -2.698 V 9.863 c -0.311,0.753 -0.808,1.331 -1.492,1.735 -0.684,0.401 -1.511,0.6 -2.474,0.6 -1.573,0 -2.848,-0.578 -3.83,-1.735 -0.976,-1.153 -1.467,-2.673 -1.467,-4.557 0,-1.98 0.485,-3.54 1.436,-4.678 0.957,-1.141 2.269,-1.71 3.941,-1.71 0.827,0 1.561,0.165 2.201,0.494 0.647,0.333 1.207,0.84 1.685,1.517 l -0.018,-1.566 c -0.013,-1.185 -0.268,-2.03 -0.778,-2.537 -0.503,-0.503 -1.33,-0.758 -2.486,-0.758 -0.777,0 -1.381,0.133 -1.81,0.398 -0.435,0.264 -0.671,0.652 -0.715,1.156 l -2.897,-0.012 c 0.019,-1.135 0.51,-2.046 1.486,-2.73 0.97,-0.684 2.263,-1.022 3.892,-1.022 2.176,0 3.724,0.469 4.65,1.408 0.92,0.942 1.374,2.567 1.374,4.868 z"
             style="fill:#006b8c;fill-opacity:1;fill-rule:nonzero;stroke:none"
             id="path52" />
        </g>
        <g
           id="g54"
           transform="translate(396.5006,109.8213)">
          <path
             d="M 0,0 H -1.085 V 16.013 H -5.486 V 17.03 H 4.405 V 16.013 H 0 Z"
             style="fill:#006b8c;fill-opacity:1;fill-rule:nonzero;stroke:none"
             id="path56" />
        </g>
        <g
           id="g58"
           transform="translate(415.08,119.6239)">
          <path
             d="M 0,0 V 7.227 H 1.085 V -9.803 H 0 v 8.787 h -10.345 v -8.787 h -1.082 v 17.03 h 1.082 V 0 Z"
             style="fill:#006b8c;fill-opacity:1;fill-rule:nonzero;stroke:none"
             id="path60" />
        </g>
        <g
           id="g62"
           transform="translate(421.5296,125.8284)">
          <path
             d="M 0,0 V -6.189 H 6.867 V -7.205 H 0 v -7.792 h 7.047 v -1.016 H -1.082 V 1.016 H 7.047 V 0 Z"
             style="fill:#006b8c;fill-opacity:1;fill-rule:nonzero;stroke:none"
             id="path64" />
        </g>
        <g
           id="g66"
           transform="translate(435.2851,118.9012)">
          <path
             d="M 0,0 C 1.063,0 2.123,0.045 2.984,0.79 3.795,1.445 4.181,2.46 4.181,3.477 4.181,4.742 3.593,6.007 2.372,6.55 1.47,6.979 0.317,6.933 -0.678,6.933 H -1.377 L -1.377,0 Z M 5.965,-9.08 H 4.722 l -5.555,8.064 H -1.377 V -9.08 H -2.459 V 7.95 h 2.12 c 1.38,0 2.736,-0.023 3.886,-0.86 1.221,-0.858 1.716,-2.213 1.716,-3.658 0,-2.958 -2.055,-4.494 -4.878,-4.448 z"
             style="fill:#006b8c;fill-opacity:1;fill-rule:nonzero;stroke:none"
             id="path68" />
        </g>
        <g
           id="g70"
           transform="translate(450.4814,124.6597)">
          <path
             d="M 0,0 -3.342,-8.22 H 3.32 Z M -3.749,-9.237 -6.03,-14.838 H -7.137 L 0,2.756 7.115,-14.838 H 6.009 l -2.282,5.601 z"
             style="fill:#006b8c;fill-opacity:1;fill-rule:nonzero;stroke:none"
             id="path72" />
        </g>
        <g
           id="g74"
           transform="translate(463.3629,118.923)">
          <path
             d="M 0,0 C 1.107,0 2.101,0.135 2.981,0.926 3.727,1.604 4.088,2.485 4.088,3.478 4.088,4.54 3.659,5.601 2.801,6.234 1.943,6.888 0.858,6.912 -0.18,6.912 h -1.785 l 0,-6.912 z m -1.965,-9.102 h -1.081 v 17.03 h 3.002 C 1.29,7.928 2.577,7.836 3.637,6.933 4.675,6.052 5.172,4.765 5.172,3.433 5.172,2.213 4.7,0.858 3.749,0.068 2.711,-0.836 1.29,-1.016 -0.044,-1.016 h -1.921 z"
             style="fill:#006b8c;fill-opacity:1;fill-rule:nonzero;stroke:none"
             id="path76" />
        </g>
        <path
           d="m 473.188,109.821 h -1.082 v 17.03 h 1.082 z"
           style="fill:#006b8c;fill-opacity:1;fill-rule:nonzero;stroke:none"
           id="path78" />
        <g
           id="g80"
           transform="translate(478.835,125.8407)">
          <path
             d="M 0,0 V -6.189 H 6.867 V -7.205 H 0 v -7.792 h 7.047 v -1.016 H -1.082 V 1.016 H 7.047 V 0 Z"
             style="fill:#006b8c;fill-opacity:1;fill-rule:nonzero;stroke:none"
             id="path82" />
        </g>
        <g
           id="g84"
           transform="translate(497.8619,124.0564)">
          <path
             d="m 0,0 c -0.768,1.219 -1.853,2.01 -3.454,2.01 -1.83,0 -3.207,-1.469 -3.207,-3.253 0,-1.783 1.694,-2.529 3.071,-3.183 l 3.251,-1.695 c 1.287,-0.812 1.943,-1.852 1.943,-3.388 0,-2.822 -2.574,-4.947 -5.331,-4.947 -2.372,0 -4.221,1.469 -5.014,3.66 l 0.951,0.429 c 0.721,-1.807 2.055,-3.072 4.11,-3.072 2.235,0 4.199,1.762 4.199,4.02 0,1.92 -1.964,2.733 -3.432,3.455 l -3.071,1.628 c -1.128,0.699 -1.762,1.694 -1.762,3.048 0,2.53 1.806,4.314 4.358,4.314 1.719,0 3.344,-0.926 4.156,-2.393 z"
             style="fill:#006b8c;fill-opacity:1;fill-rule:nonzero;stroke:none"
             id="path86" />
        </g>
      </g>
    </g>
  </g>
</svg>
